<svg xmlns="http://www.w3.org/2000/svg" xmlns:xlink="http://www.w3.org/1999/xlink" width="740" height="265" version="1.1" viewBox="-0.5 -0.5 740 265"><defs><style type="text/css">@import url(https://fonts.googleapis.com/css2?family=Roboto:wght@400;500);</style></defs><g><g><rect width="465" height="220" x="141" y="20" fill="none" stroke="#404040" stroke-width="2" pointer-events="all"/></g><g><g fill="#404040" font-family="Roboto" font-size="14" font-weight="bold" text-anchor="middle"><text x="373" y="39.5">manager</text></g></g><g><rect width="120" height="60" x="159" y="150" fill="none" stroke="#404040" stroke-width="2" pointer-events="all"/></g><g><g fill="#404040" font-family="Roboto" font-size="14" text-anchor="middle"><text x="218.5" y="185.5">load file</text></g></g><g><rect width="120" height="60" x="159" y="50" fill="none" stroke="#404040" stroke-width="2" pointer-events="all"/></g><g><g fill="#404040" font-family="Roboto" font-size="14" text-anchor="middle"><text x="218.5" y="85.5">API</text></g></g><g><rect width="120" height="60" x="316" y="100" fill="none" stroke="#404040" stroke-width="2" pointer-events="all"/></g><g><g fill="#404040" font-family="Roboto" font-size="14" text-anchor="middle"><text x="375.5" y="135.5">parsing</text></g></g><g><path fill="none" stroke="#404040" stroke-dasharray="6 6" stroke-miterlimit="10" stroke-width="2" d="M 587 130 L 653.79 130.91" pointer-events="stroke"/><path fill="#404040" stroke="#404040" stroke-miterlimit="10" stroke-width="2" d="M 659.79 130.99 L 651.74 134.88 L 653.79 130.91 L 651.84 126.88 Z" pointer-events="all"/></g><g><path fill="none" stroke="#404040" stroke-dasharray="6 6" stroke-miterlimit="10" stroke-width="2" d="M 621 130 L 621 41 L 651 41 L 652.87 41.01" pointer-events="stroke"/><path fill="#404040" stroke="#404040" stroke-miterlimit="10" stroke-width="2" d="M 658.87 41.06 L 650.84 45 L 652.87 41.01 L 650.9 37 Z" pointer-events="all"/></g><g><rect width="120" height="60" x="467" y="100" fill="none" stroke="#404040" stroke-width="2" pointer-events="all"/></g><g><g fill="#404040" font-family="Roboto" font-size="14" text-anchor="middle"><text x="526.5" y="127">validation</text><text x="526.5" y="144">normalization</text></g></g><g><path fill="none" stroke="#404040" stroke-miterlimit="10" stroke-width="2" d="M 279 80 L 297.5 80 L 297.5 115 L 307.76 115" pointer-events="stroke"/><path fill="#404040" stroke="#404040" stroke-miterlimit="10" stroke-width="2" d="M 313.76 115 L 305.76 119 L 307.76 115 L 305.76 111 Z" pointer-events="all"/></g><g><rect width="120" height="60" x="1" y="50" fill="none" stroke="#404040" stroke-width="2" pointer-events="all"/></g><g><g fill="#404040" font-family="Roboto" font-size="14" text-anchor="middle"><text x="60.5" y="85.5">kresctl</text></g></g><g><path fill="none" stroke="#404040" stroke-miterlimit="10" stroke-width="2" d="M 279 180 L 297.5 180 L 297.5 145 L 307.76 145" pointer-events="stroke"/><path fill="#404040" stroke="#404040" stroke-miterlimit="10" stroke-width="2" d="M 313.76 145 L 305.76 149 L 307.76 145 L 305.76 141 Z" pointer-events="all"/></g><g><path fill="none" stroke="#404040" stroke-dasharray="6 6" stroke-miterlimit="10" stroke-width="2" d="M 621 131 L 621 220 L 651.18 220" pointer-events="stroke"/><path fill="#404040" stroke="#404040" stroke-miterlimit="10" stroke-width="2" d="M 657.18 220 L 649.18 224 L 651.18 220 L 649.18 216 Z" pointer-events="all"/></g><g><path fill="none" stroke="#404040" stroke-dasharray="6 6" stroke-miterlimit="10" stroke-width="2" d="M 121 80 L 150.76 80" pointer-events="stroke"/><path fill="#404040" stroke="#404040" stroke-miterlimit="10" stroke-width="2" d="M 156.76 80 L 148.76 84 L 150.76 80 L 148.76 76 Z" pointer-events="all"/></g><g><path fill="none" stroke="#404040" stroke-dasharray="6 6" stroke-miterlimit="10" stroke-width="2" d="M 92.25 179.5 L 150.76 179.94" pointer-events="stroke"/><path fill="#404040" stroke="#404040" stroke-miterlimit="10" stroke-width="2" d="M 156.76 179.98 L 148.73 183.92 L 150.76 179.94 L 148.79 175.92 Z" pointer-events="all"/></g><g><path fill="none" stroke="#404040" stroke-miterlimit="10" stroke-width="2" d="M 436 130 L 458.76 130" pointer-events="stroke"/><path fill="#404040" stroke="#404040" stroke-miterlimit="10" stroke-width="2" d="M 464.76 130 L 456.76 134 L 458.76 130 L 456.76 126 Z" pointer-events="all"/></g><g><path fill="none" stroke="#404040" stroke-miterlimit="10" stroke-width="2" d="M 41 140 L 73.25 140 L 92.25 159 L 92.25 200 L 41 200 L 41 140 Z" pointer-events="all"/><path fill="#000" fill-opacity=".05" stroke="none" d="M 73.25 140 L 73.25 159 L 92.25 159 Z" pointer-events="all"/><path fill="none" stroke="#404040" stroke-miterlimit="10" stroke-width="2" d="M 73.25 140 L 73.25 159 L 92.25 159" pointer-events="all"/></g><g><g fill="#404040" font-family="Roboto" font-size="14" text-anchor="middle"><text x="66.13" y="219.5">config.yaml</text></g></g><g><path fill="none" stroke="#404040" stroke-miterlimit="10" stroke-width="2" d="M 661 1 L 693.25 1 L 712.25 20 L 712.25 61 L 661 61 L 661 1 Z" pointer-events="all"/><path fill="#000" fill-opacity=".05" stroke="none" d="M 693.25 1 L 693.25 20 L 712.25 20 Z" pointer-events="all"/><path fill="none" stroke="#404040" stroke-miterlimit="10" stroke-width="2" d="M 693.25 1 L 693.25 20 L 712.25 20" pointer-events="all"/></g><g><g fill="#404040" font-family="Roboto" font-size="14" text-anchor="middle"><text x="686.13" y="80.5">supervisord.conf</text></g></g><g><path fill="none" stroke="#404040" stroke-miterlimit="10" stroke-width="2" d="M 661 181 L 693.25 181 L 712.25 200 L 712.25 241 L 661 241 L 661 181 Z" pointer-events="all"/><path fill="#000" fill-opacity=".05" stroke="none" d="M 693.25 181 L 693.25 200 L 712.25 200 Z" pointer-events="all"/><path fill="none" stroke="#404040" stroke-miterlimit="10" stroke-width="2" d="M 693.25 181 L 693.25 200 L 712.25 200" pointer-events="all"/></g><g><g fill="#404040" font-family="Roboto" font-size="14" text-anchor="middle"><text x="686.13" y="260.5">policy-loader.lua</text></g></g><g><path fill="none" stroke="#404040" stroke-miterlimit="10" stroke-width="2" d="M 661 91 L 693.25 91 L 712.25 110 L 712.25 151 L 661 151 L 661 91 Z" pointer-events="all"/><path fill="#000" fill-opacity=".05" stroke="none" d="M 693.25 91 L 693.25 110 L 712.25 110 Z" pointer-events="all"/><path fill="none" stroke="#404040" stroke-miterlimit="10" stroke-width="2" d="M 693.25 91 L 693.25 110 L 712.25 110" pointer-events="all"/></g><g><g fill="#404040" font-family="Roboto" font-size="14" text-anchor="middle"><text x="686.13" y="170.5">kresd_N.lua</text></g></g></g></svg>